<?xml version="1.0" encoding="UTF-8"?>
<svg version="1.1" xmlns="http://www.w3.org/2000/svg" width="320" height="320">
<path d="M0 0 C1.98 0 3.96 0 6 0 C15.82570037 21.14035114 25.55682575 42.3148031 34.95898438 63.64746094 C35.277267 64.36858566 35.59554962 65.08971039 35.92347717 65.83268738 C36.51057521 67.16368081 37.09634156 68.49526293 37.68040466 69.82759094 C38.9379009 72.68011921 40.24361069 75.46707631 41.68579102 78.23217773 C43.18011254 81.37933046 43.24583786 83.55826995 43 87 C41.06372231 87.10807131 39.12572244 87.1856225 37.1875 87.25 C36.10855469 87.29640625 35.02960938 87.3428125 33.91796875 87.390625 C32.95503906 87.26171875 31.99210937 87.1328125 31 87 C28 83 28 83 22 69 C2.695 68.505 2.695 68.505 -17 68 C-17.99 70.97 -18.98 73.94 -20 77 C-21.54337179 80.41280804 -23.267494 83.67546147 -25 87 C-28.96 87 -32.92 87 -37 87 C-38.12493857 81.37530714 -38.12493857 81.37530714 -36.60742188 78.19238281 C-36.27483871 77.47726028 -35.94225555 76.76213776 -35.59959412 76.02534485 C-35.22641556 75.2590123 -34.853237 74.49267975 -34.46875 73.703125 C-34.08594376 72.88889572 -33.70313751 72.07466644 -33.30873108 71.23576355 C-32.05141494 68.56784772 -30.77568686 65.90917363 -29.5 63.25 C-28.62859392 61.40835806 -27.75873328 59.56598412 -26.89038086 57.72290039 C-25.5643522 54.90870998 -24.23742792 52.09498958 -22.90550232 49.28358459 C-18.68952109 40.38041031 -14.61115097 31.41771928 -10.5625 22.4375 C-3.66795361 7.14665163 -3.66795361 7.14665163 0 0 Z M2 25 C0.14395269 29.23382315 -1.70733366 33.46968307 -3.55419922 37.70751953 C-4.18342077 39.14949913 -4.81394967 40.59090897 -5.44580078 42.03173828 C-6.35271331 44.10041003 -7.25493595 46.17107151 -8.15625 48.2421875 C-8.44060913 48.88807831 -8.72496826 49.53396912 -9.01794434 50.19943237 C-10.5132695 53.47869966 -10.5132695 53.47869966 -11 57 C-1.76 57 7.48 57 17 57 C13.81744682 49.36187236 10.60535065 41.77950793 7.1875 34.25 C6.57745117 32.90035156 6.57745117 32.90035156 5.95507812 31.5234375 C4.97161365 29.34824549 3.98658547 27.17377774 3 25 C2.67 25 2.34 25 2 25 Z " fill="#00B8F4" transform="translate(45,122)"/>
<path d="M0 0 C1.98 0 3.96 0 6 0 C15.42958842 20.38848976 24.76602259 40.81174982 33.8203125 61.37011719 C34.4491624 62.79494674 35.07806658 64.21975235 35.70703125 65.64453125 C36.00042389 66.31233612 36.29381653 66.98014099 36.59609985 67.66818237 C38.09794549 71.06302715 39.68747678 74.36997883 41.44921875 77.63671875 C43.04347473 81.09428651 43.37560077 83.24399232 43 87 C38.94510751 87.34428332 35.04741828 87.48764076 31 87 C26.19063549 82.5605866 24.37867889 74.70882933 22 69 C2.695 68.505 2.695 68.505 -17 68 C-17.99 70.97 -18.98 73.94 -20 77 C-21.3515625 79.8125 -21.3515625 79.8125 -22.625 82 C-23.05039063 82.7425 -23.47578125 83.485 -23.9140625 84.25 C-25 86 -25 86 -26 87 C-27.85287502 87.07226502 -29.70833878 87.0838122 -31.5625 87.0625 C-33.08037109 87.04896484 -33.08037109 87.04896484 -34.62890625 87.03515625 C-35.41136719 87.02355469 -36.19382813 87.01195312 -37 87 C-38.47166376 82.81876748 -37.57518915 80.2679174 -35.75202942 76.33021545 C-35.40073471 75.6076506 -35.04944 74.88508575 -34.6875 74.140625 C-34.14672066 72.98614113 -34.14672066 72.98614113 -33.59501648 71.80833435 C-32.40897887 69.28288254 -31.20448917 66.7666964 -30 64.25 C-29.17533534 62.50176654 -28.35218892 60.75281615 -27.53051758 59.00317383 C-26.27034908 56.32042045 -25.00915735 53.63820166 -23.74287415 50.95832825 C-19.30632125 41.56592735 -15.02868992 32.10360196 -10.76196289 22.63317871 C-7.32486026 15.01033913 -3.82232808 7.43924814 0 0 Z M2 25 C0.14143093 29.07189366 -1.70976667 33.14703215 -3.55419922 37.2253418 C-4.18271447 38.61232601 -4.81323667 39.99840259 -5.44580078 41.38354492 C-6.35457784 43.37443721 -7.25609245 45.36847972 -8.15625 47.36328125 C-8.70087891 48.56251221 -9.24550781 49.76174316 -9.80664062 50.99731445 C-11.18466572 53.92612653 -11.18466572 53.92612653 -11 57 C-1.76 57 7.48 57 17 57 C10.17443869 40.92278931 10.17443869 40.92278931 3 25 C2.67 25 2.34 25 2 25 Z " fill="#00B8F4" transform="translate(182,122)"/>
<path d="M0 0 C3.98722435 0.54621409 5.8013811 2.43734779 8.58496094 5.24438477 C9.48559265 6.14524307 10.38622437 7.04610138 11.31414795 7.97425842 C12.28771872 8.96314848 13.26112387 9.95220161 14.234375 10.94140625 C15.23691291 11.94954119 16.24011659 12.95701446 17.24395752 13.96385193 C19.88097746 16.61231219 22.50886324 19.2696583 25.13494873 21.92895508 C27.81758071 24.64230537 30.50875252 27.34715605 33.19921875 30.05273438 C38.47454152 35.36020695 43.74024371 40.6770957 49 46 C52.53070445 44.49647168 54.76690652 42.45985046 57.44555664 39.73388672 C58.31648453 38.85312469 59.18741241 37.97236267 60.08473206 37.06491089 C60.54511934 36.59466366 61.00550663 36.12441643 61.47984505 35.63991928 C62.92510801 34.16442297 64.377009 32.69576538 65.83091736 31.22879028 C69.96172176 27.05827853 74.07959696 22.87508143 78.19458008 18.68896484 C80.71514608 16.12576093 83.24292078 13.56984638 85.77511406 11.01813126 C86.73850583 10.04415642 87.69897004 9.06727693 88.65645027 8.08749008 C89.99210623 6.72074972 91.33774283 5.36378437 92.68383789 4.00732422 C93.82823082 2.84388992 93.82823082 2.84388992 94.9957428 1.6569519 C97 0 97 0 100 0 C99.33229677 3.28886398 98.11810952 5.89084451 96.515625 8.83203125 C95.74134155 10.25890259 95.74134155 10.25890259 94.95141602 11.71459961 C94.38994873 12.73690674 93.82848145 13.75921387 93.25 14.8125 C92.37589478 16.41460327 92.37589478 16.41460327 91.48413086 18.04907227 C86.52153351 27.11570226 81.449229 36.11874845 76.34375 45.10546875 C72.72628446 51.47371537 69.14143191 57.86003509 65.5625 64.25 C64.99539307 65.26118896 64.42828613 66.27237793 63.84399414 67.31420898 C63.29864014 68.28817627 62.75328613 69.26214355 62.19140625 70.265625 C61.66047363 71.20857422 61.12954102 72.15152344 60.58251953 73.12304688 C59.4884586 75.11200307 58.42893188 77.12020555 57.39794922 79.14257812 C56.88377441 80.14224609 56.36959961 81.14191406 55.83984375 82.171875 C55.38859131 83.07518555 54.93733887 83.97849609 54.47241211 84.90917969 C53 87 53 87 50.82250977 87.80175781 C50.22108154 87.86717773 49.61965332 87.93259766 49 88 C44.20862234 81.12327292 40.08802138 73.97074832 36.0625 66.625 C35.40814104 65.43824146 34.75334645 64.25172304 34.09814453 63.06542969 C32.7399652 60.60544311 31.38364051 58.14444887 30.02880859 55.68261719 C26.82512831 49.86384019 23.59995049 44.05701045 20.375 38.25 C19.76269531 37.14551514 19.15039062 36.04103027 18.51953125 34.90307617 C15.43075983 29.33944302 12.31971357 23.78995162 9.16796875 18.26171875 C8.25748779 16.66312012 8.25748779 16.66312012 7.32861328 15.03222656 C6.17593884 13.01241715 5.01952978 10.99473314 3.85888672 8.97949219 C3.34986816 8.0877832 2.84084961 7.19607422 2.31640625 6.27734375 C1.64266968 5.10546509 1.64266968 5.10546509 0.95532227 3.90991211 C0 2 0 2 0 0 Z " fill="#00A6CC" transform="translate(66,122)"/>
<path d="M0 0 C22 0 22 0 30 4 C33.78008107 7.78008107 34.27901132 10.89576902 34.4375 16.0625 C34.43067382 21.3664421 33.20281055 24.67383206 29.53515625 28.546875 C24.60957236 32.57095945 21.4956177 33.13685259 15.25 33.0625 C14.26515625 33.05347656 13.2803125 33.04445312 12.265625 33.03515625 C11.51796875 33.02355469 10.7703125 33.01195312 10 33 C10.01160156 34.21558594 10.02320313 35.43117187 10.03515625 36.68359375 C10.04453278 38.26822764 10.05363313 39.85286318 10.0625 41.4375 C10.07087891 42.23994141 10.07925781 43.04238281 10.08789062 43.86914062 C10.0965143 45.91295221 10.0522815 47.95683902 10 50 C9.505 50.495 9.505 50.495 9 51 C6.03 51 3.06 51 0 51 C0 34.17 0 17.34 0 0 Z M10 10 C10 14.29 10 18.58 10 23 C16.64724933 23.56771846 16.64724933 23.56771846 22.6875 21.4375 C24.57481508 17.93248628 24.04621254 15.76636515 23 12 C19.68629 9.79086 18.6553979 9.77518447 14.8125 9.875 C13.224375 9.91625 11.63625 9.9575 10 10 Z " fill="#00437F" transform="translate(278,159)"/>
<path d="M0 0 C1.00514648 0.00757324 2.01029297 0.01514648 3.04589844 0.02294922 C17.78149005 0.34887367 31.22620678 5.59788782 42.15625 15.69921875 C44.27261917 18.20396418 44.7760711 20.1894714 44.625 23.4375 C42.625 25.4375 42.625 25.4375 40.0625 26 C35.57586849 25.26582394 33.48174683 23.16459045 30.03515625 20.31640625 C19.72384426 12.27792802 6.50809568 9.2161156 -6.375 10.4375 C-17.64254574 12.28675369 -26.71817581 16.55748021 -35.26953125 24.08203125 C-37.86408119 25.75236303 -39.34322012 25.85343013 -42.375 25.4375 C-44.375 23.4375 -44.375 23.4375 -44.765625 20.5625 C-44.375 17.4375 -44.375 17.4375 -42.609375 15.3125 C-29.57784447 5.47738262 -16.44573751 -0.17507291 0 0 Z " fill="#FEC600" transform="translate(116.375,57.5625)"/>
<path d="M0 0 C10.56 0 21.12 0 32 0 C32 2.97 32 5.94 32 9 C31 10 31 10 28.95874023 10.11352539 C28.08419189 10.10828857 27.20964355 10.10305176 26.30859375 10.09765625 C25.36435547 10.09443359 24.42011719 10.09121094 23.44726562 10.08789062 C22.45404297 10.07951172 21.46082031 10.07113281 20.4375 10.0625 C19.44041016 10.05798828 18.44332031 10.05347656 17.41601562 10.04882812 C14.94398513 10.03700023 12.47198528 10.01906415 10 10 C10 13.96 10 17.92 10 22 C11.28777344 21.98839844 12.57554687 21.97679687 13.90234375 21.96484375 C15.58072772 21.9554673 17.25911326 21.94636695 18.9375 21.9375 C20.21270508 21.92493164 20.21270508 21.92493164 21.51367188 21.91210938 C22.32255859 21.90888672 23.13144531 21.90566406 23.96484375 21.90234375 C24.7137085 21.89710693 25.46257324 21.89187012 26.23413086 21.88647461 C28 22 28 22 29 23 C29 25.64 29 28.28 29 31 C22.73 31 16.46 31 10 31 C10.03958027 37.20792914 10.03958027 37.20792914 10.09008789 43.41577148 C10.09258545 44.18477783 10.09508301 44.95378418 10.09765625 45.74609375 C10.10289307 46.53685303 10.10812988 47.3276123 10.11352539 48.14233398 C10 50 10 50 9 51 C6.03 51 3.06 51 0 51 C0 34.17 0 17.34 0 0 Z " fill="#00437F" transform="translate(238,159)"/>
<path d="M0 0 C5.81762754 3.34788 8.40350674 7.81598896 10.5078125 14.12890625 C11.29126935 20.64058863 10.32677388 25.74710836 6.5078125 31.12890625 C2.10954201 35.87662836 -2.44604629 38.18064925 -8.8671875 38.44140625 C-14.67642603 38.28700788 -18.82510978 36.56865519 -23.2421875 32.75390625 C-27.42400646 27.87511747 -29.64081443 23.69135703 -29.4921875 17.12890625 C-28.53964819 9.97925827 -26.01434338 5.90147491 -20.4296875 1.40625 C-14.82950487 -2.28580589 -6.1839498 -2.16147462 0 0 Z M-17.4921875 11.12890625 C-20.05789339 14.54984744 -19.92926804 17.97664109 -19.4921875 22.12890625 C-17.67082332 25.16451321 -16.17273139 26.73490716 -13.1171875 28.50390625 C-9.76567137 29.30188628 -7.78906768 29.15918131 -4.4921875 28.12890625 C-1.34008683 25.67727239 0.21756518 23.98150775 1.5078125 20.19140625 C1.5078125 15.55338541 -0.10984764 12.60998467 -3.2421875 9.25390625 C-8.37431864 6.68784068 -13.1280483 7.63759489 -17.4921875 11.12890625 Z " fill="#00B8F4" transform="translate(125.4921875,109.87109375)"/>
<path d="M0 0 C4.02929708 0.54029505 5.86813571 2.50441156 8.67675781 5.33618164 C9.59741028 6.2570607 10.51806274 7.17793976 11.46661377 8.12672424 C12.46227919 9.13770904 13.45777907 10.1488569 14.453125 11.16015625 C15.47808326 12.19071141 16.50370714 13.22060494 17.52996826 14.24986267 C20.22617017 16.95750592 22.91324072 19.67403772 25.59851074 22.39251709 C28.34146729 25.16618973 31.09296124 27.93136429 33.84375 30.69726562 C39.2375602 36.12322744 44.62175234 41.55860743 50 47 C48.66579335 49.76261241 47.41915936 51.83626126 45.25 54.015625 C44.46109375 54.80839844 44.46109375 54.80839844 43.65625 55.6171875 C43.1096875 56.15601563 42.563125 56.69484375 42 57.25 C41.18015625 58.08144531 41.18015625 58.08144531 40.34375 58.9296875 C36.2533867 63 36.2533867 63 34 63 C33.59386475 62.26289795 33.18772949 61.5257959 32.76928711 60.76635742 C25.4152861 47.42196344 18.05656541 34.08017535 10.66287231 20.75772095 C9.70366353 19.02912834 8.74525747 17.30009038 7.78686523 15.57104492 C7.20106689 14.5163501 6.61526855 13.46165527 6.01171875 12.375 C5.50084717 11.45460937 4.98997559 10.53421875 4.46362305 9.5859375 C3.45160907 7.79790546 2.39785898 6.03309126 1.31176758 4.2890625 C0 2 0 2 0 0 Z " fill="#00B7F3" transform="translate(66,122)"/>
<path d="M0 0 C3.7633036 2.68710707 6.62784274 5.21278696 9.125 9.125 C8.9375 12 8.9375 12 8.125 14.125 C5.42876439 14.96757363 3.87968048 15.42874804 1.125 15.125 C-1.06284404 13.5926234 -2.86293689 11.82910655 -4.7890625 9.98046875 C-11.33309452 4.15946649 -19.35904459 3.04509157 -27.875 3.125 C-36.33243865 3.76820326 -43.37520839 8.09184727 -49.6875 13.5625 C-51.875 15.125 -51.875 15.125 -54.625 14.9375 C-56.875 14.125 -56.875 14.125 -57.875 13.125 C-58.24469159 9.67294478 -58.3802003 7.8148167 -56.29296875 4.96484375 C-39.87146942 -9.04088335 -18.51188255 -11.51311844 0 0 Z " fill="#003D91" transform="translate(140.875,79.875)"/>
<path d="M0 0 C2.73141857 1.71799472 5.10182199 3.36328174 7 6 C7 9.3125 7 9.3125 6 12 C5 13 5 13 2.25 13.3125 C-1.73646995 12.92918558 -3.06153668 11.62915139 -6 9 C-10.72387653 6.12107096 -15.63382433 6.37740503 -21 7 C-25.08332829 8.41448627 -28.42146147 10.61430765 -32 13 C-36.54054054 12.45945946 -36.54054054 12.45945946 -38 11 C-38.4375 8.25 -38.4375 8.25 -38 5 C-28.1819528 -5.85152585 -12.38125086 -6.89265512 0 0 Z " fill="#F40000" transform="translate(132,93)"/>
<path d="M0 0 C0.33 1.32 0.66 2.64 1 4 C-0.134375 3.979375 -1.26875 3.95875 -2.4375 3.9375 C-5.81575674 3.58422523 -5.81575674 3.58422523 -7 5 C-7.04063832 6.66617115 -7.042721 8.33388095 -7 10 C-3.98968256 10.93423645 -3.13349732 11.04449911 0 10 C0.66 10.33 1.32 10.66 2 11 C3.98 7.04 5.96 3.08 8 -1 C8.66 -1 9.32 -1 10 -1 C11.00696568 1.10084209 12.0053589 3.20579489 13 5.3125 C13.556875 6.48425781 14.11375 7.65601563 14.6875 8.86328125 C16 12 16 12 16 15 C14.68 15 13.36 15 12 15 C12 14.34 12 13.68 12 13 C11.13375 13.33 10.2675 13.66 9.375 14 C3.50179684 15.67978444 -2.96898209 15.70462898 -9 15 C-11.31525056 13.30343853 -11.88094979 12.34799291 -12.8125 9.625 C-13.04015388 6.43784575 -12.54198246 4.79025398 -11 2 C-7.57580345 -1.80466283 -4.75220753 -1.00527467 0 0 Z M8 7 C8 7.66 8 8.32 8 9 C8.66 8.67 9.32 8.34 10 8 C9.34 7.67 8.68 7.34 8 7 Z " fill="#000000" transform="translate(261,247)"/>
<path d="M0 0 C3.3 0 6.6 0 10 0 C9.42365861 4.75481646 7.44931479 7.97048212 5 12 C7.97 12.495 7.97 12.495 11 13 C11.19335938 12.39671875 11.38671875 11.7934375 11.5859375 11.171875 C11.84632813 10.37265625 12.10671875 9.5734375 12.375 8.75 C12.63023437 7.96109375 12.88546875 7.1721875 13.1484375 6.359375 C13.95173667 4.13372042 14.89711662 2.09068328 16 0 C19 1 19 1 20.60546875 3.87109375 C21.12753906 5.04800781 21.64960938 6.22492188 22.1875 7.4375 C22.71730469 8.61183594 23.24710938 9.78617188 23.79296875 10.99609375 C25 14 25 14 25 16 C24.29875 15.855625 23.5975 15.71125 22.875 15.5625 C19.92443859 14.98521625 16.96729849 14.48304859 14 14 C14 14.66 14 15.32 14 16 C9.05 16 4.1 16 -1 16 C0.02961758 10.85191212 1.34324249 8.37079462 4 4 C2.35 4 0.7 4 -1 4 C-0.67 2.68 -0.34 1.36 0 0 Z " fill="#000000" transform="translate(161,246)"/>
<path d="M0 0 C1.32 0.33 2.64 0.66 4 1 C4 4.96 4 8.92 4 13 C6.31 13 8.62 13 11 13 C11.0825 12.34 11.165 11.68 11.25 11 C12.24759791 7.00960837 14.07166683 3.61450357 16 0 C16.66 0 17.32 0 18 0 C20.31 4.95 22.62 9.9 25 15 C23.68 15.33 22.36 15.66 21 16 C20.67 15.67 20.34 15.34 20 15 C17 14.83333333 17 14.83333333 14 15 C13.67 15.33 13.34 15.66 13 16 C8.66469082 16.14393457 4.33842269 16.04212061 0 16 C0 10.72 0 5.44 0 0 Z " fill="#000000" transform="translate(77,246)"/>
<path d="M0 0 C2.97 0 5.94 0 9 0 C8.08541782 3.65832872 6.99523834 5.87701826 5 9 C6.65 9.33 8.3 9.66 10 10 C10.99 7.03 11.98 4.06 13 1 C14.32 1 15.64 1 17 1 C20 6.625 20 6.625 20 10 C21.65 10 23.3 10 25 10 C25 6.7 25 3.4 25 0 C25.99 0 26.98 0 28 0 C28.05391993 1.79133978 28.09275571 3.58313899 28.125 5.375 C28.14820313 6.37273437 28.17140625 7.37046875 28.1953125 8.3984375 C28 11 28 11 26 13 C23.31160615 13.26991906 20.70858064 13.08737357 18 13 C18 12.01 18 11.02 18 10 C15.52733235 10.34444881 15.52733235 10.34444881 13 11 C12.67 11.66 12.34 12.32 12 13 C8.04 13 4.08 13 0 13 C0.93411993 9.2635203 2.22742965 6.39100415 4 3 C2.68 2.67 1.36 2.34 0 2 C0 1.34 0 0.68 0 0 Z M14 6 C14 6.66 14 7.32 14 8 C14.66 8 15.32 8 16 8 C16 7.34 16 6.68 16 6 C15.34 6 14.68 6 14 6 Z " fill="#000000" transform="translate(273,224)"/>
<path d="M0 0 C0.99 0 1.98 0 3 0 C4.32 2.97 5.64 5.94 7 9 C7.99 6.03 8.98 3.06 10 0 C10.66 0 11.32 0 12 0 C12.99 1.98 13.98 3.96 15 6 C15.99 4.02 16.98 2.04 18 0 C18.66 0 19.32 0 20 0 C20.33872513 1.41538717 20.67074624 2.83237963 21 4.25 C21.185625 5.03890625 21.37125 5.8278125 21.5625 6.640625 C22 9 22 9 22 13 C21.01 13 20.02 13 19 13 C18.67 11.68 18.34 10.36 18 9 C17.34 10.32 16.68 11.64 16 13 C15.01 12.67 14.02 12.34 13 12 C12.67 11.34 12.34 10.68 12 10 C11.01 11.485 11.01 11.485 10 13 C7.375 13.1875 7.375 13.1875 5 13 C4.67 12.01 4.34 11.02 4 10 C1.52733235 10.34444881 1.52733235 10.34444881 -1 11 C-1.33 11.66 -1.66 12.32 -2 13 C-2.99 13 -3.98 13 -5 13 C-4.54554036 11.58208592 -4.08625056 10.16571954 -3.625 8.75 C-3.24214844 7.56664062 -3.24214844 7.56664062 -2.8515625 6.359375 C-2.04826333 4.13372042 -1.10288338 2.09068328 0 0 Z M1 5 C0.67 5.99 0.34 6.98 0 8 C0.99 7.67 1.98 7.34 3 7 C2.34 6.34 1.68 5.68 1 5 Z " fill="#000000" transform="translate(12,224)"/>
<path d="M0 0 C1.14660429 0.93237674 2.27555277 1.88745579 3.375 2.875 C5.80482243 5.20357138 5.80482243 5.20357138 8.75 5.4375 C11.19260663 5.18015448 11.19260663 5.18015448 13 3 C12.67 4.65 12.34 6.3 12 8 C8.77274483 8.57925093 6.69792509 8.47060092 3.94921875 6.6171875 C2.43398736 5.3737827 0.92110092 4.12751662 -0.58984375 2.87890625 C-10.90115574 -5.15957198 -24.11690432 -8.2213844 -37 -7 C-48.26754574 -5.15074631 -57.34317581 -0.88001979 -65.89453125 6.64453125 C-68.50101661 8.32254687 -69.95632828 8.49805537 -73 8 C-73.66 7.01 -74.32 6.02 -75 5 C-73.65808594 5.11408203 -73.65808594 5.11408203 -72.2890625 5.23046875 C-68.30700741 4.95144114 -67.25528216 3.98987568 -64.375 1.3125 C-59.01852427 -3.24534456 -53.6099597 -5.71655938 -47 -8 C-46.00419922 -8.36931641 -46.00419922 -8.36931641 -44.98828125 -8.74609375 C-29.48685585 -13.62181324 -13.14410001 -8.46679259 0 0 Z " fill="#E8B500" transform="translate(147,75)"/>
<path d="M0 0 C8.15384615 0 8.15384615 0 13 3 C14.54586876 6.09173752 14.29359521 8.59429552 14 12 C12.625 14.4375 12.625 14.4375 10 16 C6.59264014 16.32578206 3.43853858 16.18097571 0 16 C0 10.72 0 5.44 0 0 Z M4 4 C4 6.97 4 9.94 4 13 C5.65 12.67 7.3 12.34 9 12 C9.33 10.02 9.66 8.04 10 6 C7.18490007 3.7226499 7.18490007 3.7226499 4 4 Z " fill="#000000" transform="translate(44,246)"/>
<path d="M0 0 C7 0 7 0 9.421875 1.11328125 C11.68185108 3.81518334 11.39910745 5.72075189 11.25 9.1875 C11.21390625 10.27417969 11.1778125 11.36085938 11.140625 12.48046875 C11.07101563 13.72763672 11.07101563 13.72763672 11 15 C7.57067929 16.71466036 3.78283935 16.05404056 0 16 C0 10.72 0 5.44 0 0 Z M4 4 C4 4.99 4 5.98 4 7 C4.99 6.67 5.98 6.34 7 6 C6.67 5.34 6.34 4.68 6 4 C5.34 4 4.68 4 4 4 Z M4 10 C4 10.99 4 11.98 4 13 C4.99 12.67 5.98 12.34 7 12 C7 11.34 7 10.68 7 10 C6.01 10 5.02 10 4 10 Z " fill="#000000" transform="translate(219,246)"/>
<path d="M0 0 C8 0 8 0 10.5 1.1875 C12 3 12 3 12.3125 5.4375 C12 8 12 8 11.4375 10.0625 C10.91957523 12.35616685 11.2883622 13.78601575 12 16 C9.625 15.75 9.625 15.75 7 15 C5.6875 12.9375 5.6875 12.9375 5 11 C4.67 12.65 4.34 14.3 4 16 C2.68 16 1.36 16 0 16 C0 10.72 0 5.44 0 0 Z M4 4 C4 4.99 4 5.98 4 7 C5.32 7 6.64 7 8 7 C7.67 6.01 7.34 5.02 7 4 C6.01 4 5.02 4 4 4 Z " fill="#000000" transform="translate(147,246)"/>
<path d="M0 0 C10.75646705 0.85368786 19.3666377 4.7416377 26.9375 12.3125 C29.47701544 12.22138062 29.47701544 12.22138062 31.9375 11.3125 C32.5975 10.3225 33.2575 9.3325 33.9375 8.3125 C34.625 10.125 34.625 10.125 34.9375 12.3125 C33.8125 14.0625 33.8125 14.0625 31.9375 15.3125 C28.9508482 15.66502284 27.48634193 15.70962953 25.015625 13.921875 C24.41234375 13.30828125 23.8090625 12.6946875 23.1875 12.0625 C15.7272086 5.18678367 8.00836772 3.21800124 -2.0625 3.3125 C-10.51993865 3.95570326 -17.56270839 8.27934727 -23.875 13.75 C-26.0625 15.3125 -26.0625 15.3125 -28.875 15.0625 C-29.9578125 14.69125 -29.9578125 14.69125 -31.0625 14.3125 C-31.0625 13.6525 -31.0625 12.9925 -31.0625 12.3125 C-29.7940625 12.250625 -29.7940625 12.250625 -28.5 12.1875 C-25.07074881 11.3145997 -24.21813901 10.78937193 -21.75 8.5 C-15.43731984 2.69009967 -8.3584938 0.85290753 0 0 Z " fill="#003885" transform="translate(115.0625,79.6875)"/>
<path d="M0 0 C1.37478516 0.01740234 1.37478516 0.01740234 2.77734375 0.03515625 C3.69644531 0.04417969 4.61554688 0.05320313 5.5625 0.0625 C6.27277344 0.07410156 6.98304688 0.08570313 7.71484375 0.09765625 C7.71484375 1.41765625 7.71484375 2.73765625 7.71484375 4.09765625 C5.40484375 4.09765625 3.09484375 4.09765625 0.71484375 4.09765625 C0.71484375 4.75765625 0.71484375 5.41765625 0.71484375 6.09765625 C2.36484375 6.09765625 4.01484375 6.09765625 5.71484375 6.09765625 C6.04484375 7.41765625 6.37484375 8.73765625 6.71484375 10.09765625 C4.73484375 10.09765625 2.75484375 10.09765625 0.71484375 10.09765625 C0.71484375 11.08765625 0.71484375 12.07765625 0.71484375 13.09765625 C3.02484375 13.09765625 5.33484375 13.09765625 7.71484375 13.09765625 C7.71484375 14.08765625 7.71484375 15.07765625 7.71484375 16.09765625 C4.08484375 16.09765625 0.45484375 16.09765625 -3.28515625 16.09765625 C-3.3120072 13.61841824 -3.33192172 11.13946785 -3.34765625 8.66015625 C-3.36022461 7.59958008 -3.36022461 7.59958008 -3.37304688 6.51757812 C-3.38169213 4.71072066 -3.33735636 2.90378022 -3.28515625 1.09765625 C-2.28515625 0.09765625 -2.28515625 0.09765625 0 0 Z " fill="#000000" transform="translate(137.28515625,245.90234375)"/>
<path d="M0 0 C1.32 0.33 2.64 0.66 4 1 C4 4.63 4 8.26 4 12 C5.32 11.67 6.64 11.34 8 11 C8.33 7.37 8.66 3.74 9 0 C10.32 0.33 11.64 0.66 13 1 C13.08142927 2.7492214 13.13938541 4.49954542 13.1875 6.25 C13.22230469 7.22453125 13.25710937 8.1990625 13.29296875 9.203125 C12.95492925 12.43027538 12.30787 13.74494167 10 16 C4.12919897 16.73385013 4.12919897 16.73385013 1.29296875 14.890625 C-0.64477192 12.05719151 -0.28798841 9.69560996 -0.1875 6.3125 C-0.16042969 5.13300781 -0.13335937 3.95351562 -0.10546875 2.73828125 C-0.07066406 1.83464844 -0.03585938 0.93101562 0 0 Z " fill="#000000" transform="translate(119,246)"/>
<path d="M0 0 C3.3 0 6.6 0 10 0 C10 1.32 10 2.64 10 4 C8.02 4 6.04 4 4 4 C4 4.66 4 5.32 4 6 C5.65 6 7.3 6 9 6 C9 7.32 9 8.64 9 10 C7.35 10 5.7 10 4 10 C4 10.99 4 11.98 4 13 C5.98 13 7.96 13 10 13 C10 13.99 10 14.98 10 16 C6.7 16 3.4 16 0 16 C0 10.72 0 5.44 0 0 Z " fill="#000000" transform="translate(60,246)"/>
<path d="M0 0 C2.03125 0.0859375 2.03125 0.0859375 4.5 0.375 C5.3146875 0.46523437 6.129375 0.55546875 6.96875 0.6484375 C9 1 9 1 10 2 C10.1875 5.4375 10.1875 5.4375 10 9 C8 11 8 11 5.375 11.125 C4.59125 11.08375 3.8075 11.0425 3 11 C3 12.65 3 14.3 3 16 C1.68 16 0.36 16 -1 16 C-1.02685095 13.52076199 -1.04676547 11.0418116 -1.0625 8.5625 C-1.07506836 7.50192383 -1.07506836 7.50192383 -1.08789062 6.41992188 C-1.09653588 4.61306441 -1.05220011 2.80612397 -1 1 C-0.67 0.67 -0.34 0.34 0 0 Z M3 4 C3 4.99 3 5.98 3 7 C4.32 6.67 5.64 6.34 7 6 C6.67 5.34 6.34 4.68 6 4 C5.01 4 4.02 4 3 4 Z " fill="#000000" transform="translate(192,246)"/>
<path d="M0 0 C0.99 0 1.98 0 3 0 C3.06058594 0.69867188 3.12117187 1.39734375 3.18359375 2.1171875 C3.26738281 3.02726563 3.35117188 3.93734375 3.4375 4.875 C3.55931641 6.23238281 3.55931641 6.23238281 3.68359375 7.6171875 C3.86989285 10.01110861 3.86989285 10.01110861 5 12 C5.66 12 6.32 12 7 12 C8.21693876 9.56612247 8.31959896 7.58161154 8.5625 4.875 C8.64628906 3.96492187 8.73007813 3.05484375 8.81640625 2.1171875 C8.87699219 1.41851562 8.93757812 0.71984375 9 0 C9.99 0 10.98 0 12 0 C12.05384521 2.29141286 12.09272087 4.58318188 12.125 6.875 C12.14820313 8.15117187 12.17140625 9.42734375 12.1953125 10.7421875 C12 14 12 14 10 16 C8.125 16.265625 8.125 16.265625 6 16.25 C4.948125 16.25773437 4.948125 16.25773437 3.875 16.265625 C2 16 2 16 0 14 C-0.1953125 10.7421875 -0.1953125 10.7421875 -0.125 6.875 C-0.10695312 5.59367188 -0.08890625 4.31234375 -0.0703125 2.9921875 C-0.04710937 2.00476563 -0.02390625 1.01734375 0 0 Z " fill="#000000" transform="translate(204,246)"/>
<path d="M0 0 C1.23556641 0.01740234 1.23556641 0.01740234 2.49609375 0.03515625 C3.32238281 0.04417969 4.14867188 0.05320313 5 0.0625 C5.63808594 0.07410156 6.27617188 0.08570313 6.93359375 0.09765625 C7.26359375 1.41765625 7.59359375 2.73765625 7.93359375 4.09765625 C5.62359375 4.09765625 3.31359375 4.09765625 0.93359375 4.09765625 C0.93359375 5.08765625 0.93359375 6.07765625 0.93359375 7.09765625 C2.91359375 7.09765625 4.89359375 7.09765625 6.93359375 7.09765625 C6.60359375 8.41765625 6.27359375 9.73765625 5.93359375 11.09765625 C4.28359375 11.09765625 2.63359375 11.09765625 0.93359375 11.09765625 C0.93359375 12.74765625 0.93359375 14.39765625 0.93359375 16.09765625 C-0.38640625 16.09765625 -1.70640625 16.09765625 -3.06640625 16.09765625 C-3.0932572 13.61841824 -3.11317172 11.13946785 -3.12890625 8.66015625 C-3.14147461 7.59958008 -3.14147461 7.59958008 -3.15429688 6.51757812 C-3.16294213 4.71072066 -3.11860636 2.90378022 -3.06640625 1.09765625 C-2.06640625 0.09765625 -2.06640625 0.09765625 0 0 Z " fill="#000000" transform="translate(110.06640625,245.90234375)"/>
<path d="M0 0 C4.59037956 1.14759489 5.33669182 2.29039218 8 6 C8.33 4.02 8.66 2.04 9 0 C9.99 0 10.98 0 12 0 C12 4.29 12 8.58 12 13 C7.40962044 11.85240511 6.66330818 10.70960782 4 7 C3.67 8.98 3.34 10.96 3 13 C2.01 13 1.02 13 0 13 C0 8.71 0 4.42 0 0 Z " fill="#000000" transform="translate(242,224)"/>
<path d="M0 0 C2.88761397 1.39130491 5.2536546 2.89037335 7.5234375 5.16015625 C10.60691576 5.32696734 10.60691576 5.32696734 13.5234375 5.16015625 C13.5234375 3.84015625 13.5234375 2.52015625 13.5234375 1.16015625 C14.1834375 1.16015625 14.8434375 1.16015625 15.5234375 1.16015625 C14.6484375 7.03515625 14.6484375 7.03515625 13.5234375 8.16015625 C9.73132205 8.59107846 8.05040149 8.5365591 4.8984375 6.28515625 C4.1146875 5.58390625 3.3309375 4.88265625 2.5234375 4.16015625 C-2.20043903 1.28122721 -7.11038683 1.53756128 -12.4765625 2.16015625 C-16.55989079 3.57464252 -19.89802397 5.7744639 -23.4765625 8.16015625 C-26.1015625 7.91015625 -26.1015625 7.91015625 -28.4765625 7.16015625 C-28.8065625 6.50015625 -29.1365625 5.84015625 -29.4765625 5.16015625 C-28.4865625 5.09828125 -27.4965625 5.03640625 -26.4765625 4.97265625 C-23.22699522 4.54456954 -21.40497902 3.53902826 -18.7890625 1.59765625 C-13.11783671 -2.19050234 -6.36693524 -2.15913419 0 0 Z " fill="#DF0000" transform="translate(123.4765625,97.83984375)"/>
<path d="M0 0 C3.23475448 1.61737724 4.70572021 2.47629223 7 5 C7.33 3.35 7.66 1.7 8 0 C8.99 0 9.98 0 11 0 C11 4.29 11 8.58 11 13 C7.23312136 11.11656068 6.20578354 10.30867531 4 7 C3.67 8.98 3.34 10.96 3 13 C2.01 13 1.02 13 0 13 C0 8.71 0 4.42 0 0 Z " fill="#000000" transform="translate(62,224)"/>
<path d="M0 0 C7.32215357 -0.36010591 7.32215357 -0.36010591 10 1.0625 C11.60318593 4.16867275 11.42751128 6.57990979 11 10 C9.4375 11.9375 9.4375 11.9375 7 13 C3.25 13.1875 3.25 13.1875 0 13 C0 8.71 0 4.42 0 0 Z M3 2 C3 4.64 3 7.28 3 10 C4.65 9.67 6.3 9.34 8 9 C8 7.35 8 5.7 8 4 C5.525 3.01 5.525 3.01 3 2 Z " fill="#000000" transform="translate(256,224)"/>
<path d="M0 0 C6.0546875 -0.1953125 6.0546875 -0.1953125 8 0 C8.66 0.66 9.32 1.32 10 2 C9.69699525 4.33746522 9.36141955 6.67085177 9 9 C9.34659295 11.32158065 9.34659295 11.32158065 10 13 C8.125 12.6875 8.125 12.6875 6 12 C5.34 11.01 4.68 10.02 4 9 C3.67 10.32 3.34 11.64 3 13 C2.01 13 1.02 13 0 13 C0 8.71 0 4.42 0 0 Z M3 2 C3 3.32 3 4.64 3 6 C4.32 5.67 5.64 5.34 7 5 C7 4.34 7 3.68 7 3 C5.68 2.67 4.36 2.34 3 2 Z " fill="#000000" transform="translate(115,224)"/>
<path d="M0 0 C2.31 0 4.62 0 7 0 C8.4617773 4.3853319 9.44935236 7.52018362 8 12 C7 13 7 13 3.4375 13.0625 C2.303125 13.041875 1.16875 13.02125 0 13 C0 8.71 0 4.42 0 0 Z M2 2 C2 2.99 2 3.98 2 5 C2.99 5 3.98 5 5 5 C4.67 4.01 4.34 3.02 4 2 C3.34 2 2.68 2 2 2 Z M2 8 C2 8.66 2 9.32 2 10 C3.32 9.67 4.64 9.34 6 9 C4.68 8.67 3.36 8.34 2 8 Z " fill="#000000" transform="translate(36,224)"/>
<path d="M0 0 C7.35678392 -0.36180905 7.35678392 -0.36180905 10 1.125 C11.504106 3.94519875 11.44912849 5.85610056 11 9 C9.4375 11.375 9.4375 11.375 7 13 C3.25 13.25 3.25 13.25 0 13 C0 8.71 0 4.42 0 0 Z M2 2 C2 4.64 2 7.28 2 10 C3.65 9.67 5.3 9.34 7 9 C7.77242269 7.16299211 7.77242269 7.16299211 8 5 C6.83333333 3.16666667 6.83333333 3.16666667 5 2 C4.01 2 3.02 2 2 2 Z " fill="#000000" transform="translate(172,224)"/>
<path d="M0 0 C2.97 0 5.94 0 9 0 C9 0.66 9 1.32 9 2 C7.02 2 5.04 2 3 2 C3 2.99 3 3.98 3 5 C4.65 5 6.3 5 8 5 C8 5.99 8 6.98 8 8 C6.35 8 4.7 8 3 8 C3 8.66 3 9.32 3 10 C4.98 10 6.96 10 9 10 C9 10.99 9 11.98 9 13 C6.03 13 3.06 13 0 13 C0 8.71 0 4.42 0 0 Z " fill="#000000" transform="translate(232,224)"/>
<path d="M0 0 C6.15234375 -0.09765625 6.15234375 -0.09765625 8 0 C9 1 9 1 9.09765625 3.72265625 C9.08605469 4.82480469 9.07445312 5.92695313 9.0625 7.0625 C9.05347656 8.16722656 9.04445312 9.27195313 9.03515625 10.41015625 C9.02355469 11.26480469 9.01195312 12.11945313 9 13 C8.01 13 7.02 13 6 13 C5.71125 12.360625 5.4225 11.72125 5.125 11.0625 C4.17176549 8.84793921 4.17176549 8.84793921 2 8 C2 9.65 2 11.3 2 13 C1.34 13 0.68 13 0 13 C0 8.71 0 4.42 0 0 Z M2 2 C2 3.32 2 4.64 2 6 C3.32 5.67 4.64 5.34 6 5 C5.67 4.01 5.34 3.02 5 2 C4.01 2 3.02 2 2 2 Z " fill="#000000" transform="translate(221,224)"/>
<path d="M0 0 C2.97 0 5.94 0 9 0 C9 0.66 9 1.32 9 2 C7.02 2 5.04 2 3 2 C3 2.99 3 3.98 3 5 C4.65 5 6.3 5 8 5 C7.67 5.99 7.34 6.98 7 8 C5.68 8 4.36 8 3 8 C3 8.66 3 9.32 3 10 C4.98 10 6.96 10 9 10 C9 10.99 9 11.98 9 13 C6.03 13 3.06 13 0 13 C0 8.71 0 4.42 0 0 Z " fill="#000000" transform="translate(84,224)"/>
<path d="M0 0 C3 1 3 1 4.16796875 2.9609375 C4.50441406 3.75757813 4.84085938 4.55421875 5.1875 5.375 C5.53167969 6.16648438 5.87585938 6.95796875 6.23046875 7.7734375 C7 10 7 10 7 13 C6.01 13 5.02 13 4 13 C3.67 12.34 3.34 11.68 3 11 C1.68 11 0.36 11 -1 11 C-1.33 11.66 -1.66 12.32 -2 13 C-2.99 13 -3.98 13 -5 13 C-4.39254603 8.14036821 -2.27241033 4.2594482 0 0 Z M0 6 C0 6.66 0 7.32 0 8 C0.66 8 1.32 8 2 8 C2 7.34 2 6.68 2 6 C1.34 6 0.68 6 0 6 Z " fill="#000000" transform="translate(151,224)"/>
<path d="M0 0 C0.99 0 1.98 0 3 0 C3 4.29 3 8.58 3 13 C4.98 13 6.96 13 9 13 C9 13.99 9 14.98 9 16 C5.7 16 2.4 16 -1 16 C-1.02685095 13.52076199 -1.04676547 11.0418116 -1.0625 8.5625 C-1.07506836 7.50192383 -1.07506836 7.50192383 -1.08789062 6.41992188 C-1.09653588 4.61306441 -1.05220011 2.80612397 -1 1 C-0.67 0.67 -0.34 0.34 0 0 Z " fill="#000000" transform="translate(233,246)"/>
<path d="M0 0 C3 1 3 1 4.16796875 2.70703125 C4.50441406 3.40183594 4.84085938 4.09664062 5.1875 4.8125 C5.53167969 5.49957031 5.87585938 6.18664062 6.23046875 6.89453125 C7 9 7 9 7 13 C6.01 12.67 5.02 12.34 4 12 C4 11.34 4 10.68 4 10 C1.52733235 10.34444881 1.52733235 10.34444881 -1 11 C-1.33 11.66 -1.66 12.32 -2 13 C-2.99 13 -3.98 13 -5 13 C-4.39254603 8.14036821 -2.27241033 4.2594482 0 0 Z M1 6 C0.67 6.66 0.34 7.32 0 8 C0.66 8 1.32 8 2 8 C1.67 7.34 1.34 6.68 1 6 Z " fill="#000000" transform="translate(202,224)"/>
<path d="M0 0 C2.64 0 5.28 0 8 0 C8 0.66 8 1.32 8 2 C6.35 2 4.7 2 3 2 C3 2.99 3 3.98 3 5 C4.65 5 6.3 5 8 5 C7.67 5.99 7.34 6.98 7 8 C5.68 8 4.36 8 3 8 C3 8.66 3 9.32 3 10 C4.65 10 6.3 10 8 10 C8 10.99 8 11.98 8 13 C5.36 13 2.72 13 0 13 C0 8.71 0 4.42 0 0 Z " fill="#000000" transform="translate(303,224)"/>
<path d="M0 0 C0.99 0 1.98 0 3 0 C3.33 2.97 3.66 5.94 4 9 C4.99 9.33 5.98 9.66 7 10 C7.33 6.7 7.66 3.4 8 0 C8.66 0 9.32 0 10 0 C10.05391993 1.79133978 10.09275571 3.58313899 10.125 5.375 C10.14820313 6.37273437 10.17140625 7.37046875 10.1953125 8.3984375 C10 11 10 11 8 13 C5 13.25 5 13.25 2 13 C0 11 0 11 -0.1953125 8.3984375 C-0.17210937 7.40070313 -0.14890625 6.40296875 -0.125 5.375 C-0.10695312 4.37210938 -0.08890625 3.36921875 -0.0703125 2.3359375 C-0.04710937 1.56507813 -0.02390625 0.79421875 0 0 Z " fill="#000000" transform="translate(135,224)"/>
<path d="M0 0 C6.15234375 -0.09765625 6.15234375 -0.09765625 8 0 C9 1 9 1 9.125 4 C9 7 9 7 8 8 C6.33382885 8.04063832 4.66611905 8.042721 3 8 C3 9.65 3 11.3 3 13 C2.01 13 1.02 13 0 13 C0 8.71 0 4.42 0 0 Z M3 2 C3 3.32 3 4.64 3 6 C3.99 5.67 4.98 5.34 6 5 C5.67 4.01 5.34 3.02 5 2 C4.34 2 3.68 2 3 2 Z " fill="#000000" transform="translate(210,224)"/>
<path d="M0 0 C1.32 0 2.64 0 4 0 C4.99 1.98 5.98 3.96 7 6 C7.99 4.02 8.98 2.04 10 0 C10.99 0 11.98 0 13 0 C12.54554036 1.41791408 12.08625056 2.83428046 11.625 4.25 C11.36976562 5.03890625 11.11453125 5.8278125 10.8515625 6.640625 C10.04826333 8.86627958 9.10288338 10.90931672 8 13 C5 12 5 12 3.61328125 9.27734375 C3.18402344 8.17519531 2.75476563 7.07304687 2.3125 5.9375 C1.87550781 4.83277344 1.43851562 3.72804687 0.98828125 2.58984375 C0.66214844 1.73519531 0.33601563 0.88054687 0 0 Z " fill="#000000" transform="translate(96,224)"/>
<path d="M0 0 C2.64 0 5.28 0 8 0 C8 0.66 8 1.32 8 2 C6.02 2 4.04 2 2 2 C2 2.99 2 3.98 2 5 C3.65 5 5.3 5 7 5 C7 5.99 7 6.98 7 8 C5.35 8 3.7 8 2 8 C2 8.66 2 9.32 2 10 C3.98 10 5.96 10 8 10 C8 10.99 8 11.98 8 13 C5.36 13 2.72 13 0 13 C0 8.71 0 4.42 0 0 Z " fill="#000000" transform="translate(185,224)"/>
<path d="M0 0 C2.64 0 5.28 0 8 0 C8 0.66 8 1.32 8 2 C6.02 2 4.04 2 2 2 C2 2.99 2 3.98 2 5 C3.65 5 5.3 5 7 5 C7 5.99 7 6.98 7 8 C5.35 8 3.7 8 2 8 C2 8.66 2 9.32 2 10 C3.98 10 5.96 10 8 10 C8 10.99 8 11.98 8 13 C5.36 13 2.72 13 0 13 C0 8.71 0 4.42 0 0 Z " fill="#000000" transform="translate(52,224)"/>
<path d="M0 0 C1.32 0.33 2.64 0.66 4 1 C4 5.95 4 10.9 4 16 C2.68 16 1.36 16 0 16 C0 10.72 0 5.44 0 0 Z " fill="#000000" transform="translate(243,246)"/>
<path d="M0 0 C0.99 0 1.98 0 3 0 C3 3.3 3 6.6 3 10 C4.65 10 6.3 10 8 10 C8 10.99 8 11.98 8 13 C5.36 13 2.72 13 0 13 C0 8.71 0 4.42 0 0 Z " fill="#000000" transform="translate(159,224)"/>
<path d="M0 0 C2.97 0 5.94 0 9 0 C9 0.66 9 1.32 9 2 C8.01 2 7.02 2 6 2 C6 5.63 6 9.26 6 13 C5.01 13 4.02 13 3 13 C3 9.37 3 5.74 3 2 C2.01 2 1.02 2 0 2 C0 1.34 0 0.68 0 0 Z " fill="#000000" transform="translate(125,224)"/>
<path d="M0 0 C2.97 0 5.94 0 9 0 C9 0.66 9 1.32 9 2 C8.01 2 7.02 2 6 2 C6 5.63 6 9.26 6 13 C5.01 13 4.02 13 3 13 C3 9.37 3 5.74 3 2 C2.01 2 1.02 2 0 2 C0 1.34 0 0.68 0 0 Z " fill="#000000" transform="translate(74,224)"/>
<path d="M0 0 C0.99 0 1.98 0 3 0 C3 4.29 3 8.58 3 13 C2.01 13 1.02 13 0 13 C0 8.71 0 4.42 0 0 Z " fill="#000000" transform="translate(269,224)"/>
<path d="M0 0 C0.99 0 1.98 0 3 0 C3 4.29 3 8.58 3 13 C2.01 13 1.02 13 0 13 C0 8.71 0 4.42 0 0 Z " fill="#000000" transform="translate(46,224)"/>
<path d="M0 0 C0.66 0 1.32 0 2 0 C2 4.29 2 8.58 2 13 C1.34 13 0.68 13 0 13 C0 8.71 0 4.42 0 0 Z " fill="#000000" transform="translate(110,224)"/>
<path d="M0 0 C1.32 0 2.64 0 4 0 C4 0.99 4 1.98 4 3 C2.02 3.33 0.04 3.66 -2 4 C-1.34 2.68 -0.68 1.36 0 0 Z " fill="#000000" transform="translate(209,242)"/>
</svg>
